<svg width="92" height="24" viewBox="0 0 92 24" fill="none" xmlns="http://www.w3.org/2000/svg">
<path d="M81.6258 12.4552C81.7021 12.9102 81.919 13.3298 82.2459 13.6552C83.439 14.8719 85.2494 15.1368 86.8045 14.3073C87.1708 14.0957 87.525 13.8642 87.8658 13.6136C88.0572 13.4749 88.1654 13.4749 88.3402 13.6289L90.0466 15.116C90.324 15.3519 90.324 15.4961 90.0868 15.7681C88.9631 17.0291 87.5897 17.8892 85.9139 18.1445C83.5167 18.5121 81.3456 17.9669 79.5504 16.2703C78.4586 15.2367 77.8385 13.941 77.6207 12.4538C77.3988 10.9459 77.5458 9.48368 78.2145 8.10612C79.144 6.19444 80.5729 4.82104 82.6885 4.34381C84.9525 3.83052 87.0556 4.26197 88.8424 5.80739C89.9841 6.79514 90.6126 8.09502 90.89 9.56553C91.0239 10.3539 91.0649 11.1552 91.0121 11.953C90.9941 12.347 90.8734 12.4608 90.4808 12.4608H81.6258V12.4552ZM87.0612 9.93039C86.9474 8.82056 85.8445 7.57201 84.3435 7.60531C82.8175 7.64276 81.8089 8.96484 81.7451 9.93039H87.0612Z" fill="#12362A"/>
<path d="M42.024 11.1777C42.024 7.88621 44.1952 5.04508 47.3963 4.33757C50.1763 3.72459 52.5393 4.52105 54.3685 6.75615C54.4436 6.84928 54.52 6.94102 54.5895 7.03415C54.6222 7.07761 54.6454 7.1275 54.6574 7.18055C54.6694 7.2336 54.6701 7.2886 54.6593 7.34192C54.6485 7.39524 54.6266 7.44567 54.5949 7.48989C54.5632 7.53411 54.5226 7.57112 54.4755 7.59848C53.535 8.19339 52.5926 8.78738 51.6483 9.38044C51.3898 9.54307 51.2716 9.51944 51.0659 9.26646C50.6847 8.80605 50.1607 8.48612 49.577 8.35744C48.9933 8.22876 48.3833 8.29871 47.8439 8.55618C45.8118 9.59867 45.6811 12.0867 47.1684 13.3989C48.3346 14.4261 49.9901 14.333 51.0075 13.1598C51.2536 12.8818 51.387 12.8582 51.7025 13.0653L54.4019 14.8042C54.6687 14.9765 54.7146 15.1948 54.5256 15.4477C53.351 17.0198 51.797 17.9608 49.8427 18.1971C47.7397 18.4501 45.891 17.8524 44.3273 16.4305C42.9772 15.2315 42.1549 13.5481 42.0393 11.7462C42.0393 11.6711 42.024 11.5961 42.0213 11.5196C42.0213 11.4057 42.0213 11.2917 42.0213 11.1777" fill="#12362A"/>
<path d="M70.5378 10.1403C70.7661 9.49382 70.9802 8.88988 71.1928 8.28453L72.507 4.55882C72.6247 4.22708 72.7466 4.1406 73.0996 4.1406H76.8296C77.1684 4.1406 77.262 4.28237 77.1273 4.59001L71.3729 17.7335C71.308 17.8944 71.1944 18.031 71.0479 18.1241C70.9015 18.2171 70.7295 18.262 70.5563 18.2524C70.1792 18.2609 69.9382 18.0766 69.785 17.7349C67.8201 13.3684 65.8547 9.00141 63.8889 4.63396C63.8363 4.52963 63.8228 4.40998 63.8506 4.29654C63.8789 4.25236 63.9173 4.21555 63.9627 4.18917C64.008 4.16279 64.059 4.1476 64.1114 4.14485C65.41 4.13493 66.7086 4.13634 68.0087 4.14485C68.2837 4.14485 68.4156 4.25827 68.5162 4.53897L70.4599 9.94465C70.4783 9.99569 70.4996 10.0453 70.5393 10.1417" fill="#12362A"/>
<path d="M39.464 11.2008V17.7936C39.464 18.1562 39.3694 18.2536 39.0082 18.2536H35.6416C35.322 18.2536 35.1772 18.1103 35.1772 17.795C35.1772 13.3893 35.1772 8.98362 35.1772 4.57792C35.1772 4.26978 35.3077 4.13793 35.6072 4.13793C36.7538 4.13793 37.9042 4.13793 39.0584 4.13793C39.3622 4.13793 39.4568 4.23395 39.4568 4.54209V11.2008" fill="#12362A"/>
<path d="M61.7069 11.2008V17.7936C61.7069 18.1562 61.6123 18.2536 61.2512 18.2536H57.8845C57.5649 18.2536 57.4202 18.1103 57.4202 17.795C57.4202 13.3893 57.4202 8.98362 57.4202 4.57792C57.4202 4.26978 57.5506 4.13793 57.8501 4.13793C58.9967 4.13793 60.1471 4.13793 61.3013 4.13793C61.6052 4.13793 61.6998 4.23395 61.6998 4.54209V11.2008" fill="#12362A"/>
<path d="M22.3448 4.78439C22.3448 4.46034 22.4336 4.37017 22.7534 4.37017C23.4156 4.37017 24.0778 4.37017 24.74 4.37017C25.4022 4.37017 26.0277 4.58433 26.6392 4.82102C26.6922 4.84666 26.7511 4.85769 26.8098 4.85298C26.8685 4.84828 26.9249 4.82801 26.9731 4.79425C27.5575 4.44573 28.2139 4.2356 28.892 4.17997C29.7769 4.0904 30.6703 4.14416 31.538 4.33917C31.8846 4.41385 31.9748 4.55474 31.9283 4.90274C31.7846 5.9491 31.6437 6.99592 31.5056 8.04322C31.4619 8.36586 31.3393 8.4518 30.9927 8.4039C30.1405 8.28427 29.2722 8.43195 28.5074 8.82657C27.5606 9.3042 27.0182 10.1214 26.7829 11.1302C26.6657 11.6277 26.6029 12.1365 26.5955 12.6476C26.5716 14.3495 26.5871 16.0529 26.5857 17.7549C26.5876 17.8321 26.5838 17.9093 26.5744 17.9859C26.5701 18.047 26.5449 18.1047 26.5031 18.1493C26.4613 18.1939 26.4053 18.2228 26.3447 18.2311C26.269 18.2456 26.1921 18.2531 26.1151 18.2536H22.8083C22.4406 18.2536 22.3448 18.1592 22.3448 17.7986V4.78439Z" fill="#12362A"/>
<path d="M7.33071 18.4477C7.67687 18.0205 8.00982 17.6168 8.33523 17.2065C8.89612 16.4985 9.45355 15.7876 10.0075 15.0739C10.041 15.0246 10.0874 14.9854 10.1416 14.9608C10.1959 14.9362 10.2559 14.927 10.315 14.9343C11.6515 14.9871 12.989 15.0343 14.3265 15.0833C14.6311 15.0937 14.7981 15.2022 14.8613 15.4342C14.9245 15.6521 14.8415 15.8407 14.6057 16.0048L3.31265 23.8665C3.07401 24.0325 2.86934 24.0429 2.6873 23.9023C2.50526 23.7618 2.45244 23.558 2.54676 23.2741C3.03723 21.7867 3.52487 20.2983 4.02194 18.8137C4.05208 18.7502 4.05748 18.6777 4.03708 18.6104C4.01667 18.543 3.97194 18.4858 3.91158 18.4496C2.6873 17.4706 1.4649 16.4852 0.244393 15.4936C0.0189664 15.3116 -0.0480013 15.122 0.0331145 14.906C0.11423 14.69 0.283064 14.5891 0.575459 14.5995C1.92519 14.6457 3.27492 14.6938 4.62465 14.7372C4.67789 14.7359 4.73049 14.749 4.77683 14.7753C4.82318 14.8015 4.86153 14.8399 4.8878 14.8862C5.65369 16.0061 6.41926 17.1241 7.18451 18.2402C7.22601 18.3006 7.26846 18.36 7.33071 18.4477Z" fill="#BABABA"/>
<path d="M7.50421 15.6483C7.3599 15.4521 7.22974 15.2766 7.10146 15.1003C5.75079 13.2516 4.39351 11.4085 3.0551 9.55137C2.49955 8.78077 2.03832 7.94791 1.83365 7.01225C1.42335 5.13244 1.88081 3.4573 3.12018 2.00194C4.02097 0.92574 5.29648 0.231351 6.68928 0.0589279C8.16212 -0.152345 9.65991 0.209108 10.8743 1.06887C12.0887 1.92864 12.9272 3.22127 13.2172 4.68064C13.5247 6.22845 13.1861 7.64326 12.3457 8.94017C11.7005 9.93242 10.9941 10.8851 10.3008 11.8443C9.41326 13.0705 8.50873 14.2872 7.61645 15.5077C7.58721 15.5464 7.55609 15.5832 7.50421 15.6483Z" fill="#509242"/>
<path d="M7.49751 16.8433C7.82952 16.4057 8.14927 15.9944 8.46147 15.569C8.9991 14.844 9.53358 14.1156 10.0649 13.3836C10.0968 13.3333 10.1419 13.2928 10.1953 13.2665C10.2488 13.2402 10.3084 13.2292 10.3677 13.2346C11.7061 13.244 13.0436 13.2469 14.382 13.2525C14.6866 13.2525 14.8536 13.3563 14.9281 13.5864C15.0026 13.8166 14.9215 13.9929 14.6914 14.1655C11.0135 16.9052 7.33497 19.6453 3.65583 22.3856C3.42286 22.5591 3.21818 22.5742 3.03237 22.4422C2.84656 22.3101 2.78431 22.1092 2.86825 21.8225C3.30967 20.32 3.74921 18.8165 4.19817 17.3168C4.22655 17.2522 4.2298 17.1794 4.20729 17.1126C4.18479 17.0458 4.13814 16.9898 4.0765 16.9555C2.81889 16.0161 1.56568 15.0729 0.316877 14.1259C0.087678 13.9467 0.015051 13.759 0.0886212 13.5402C0.162191 13.3214 0.327253 13.2157 0.62059 13.2167C1.97126 13.2167 3.32194 13.2242 4.67638 13.2223C4.72969 13.2194 4.78282 13.2308 4.83015 13.2556C4.87747 13.2803 4.91722 13.3174 4.94519 13.3629C5.74126 14.4545 6.5411 15.547 7.34471 16.6405C7.3881 16.6999 7.43243 16.7575 7.49751 16.8433Z" fill="#10352B"/>
</svg>
